<svg xmlns="http://www.w3.org/2000/svg" width="27.967" height="27.967" viewBox="0 0 27.967 27.967"><defs><style>.a{fill:none;stroke-linecap:round;stroke-linejoin:round;}.b,.c{stroke:none;}.c{fill:#fff;}</style></defs><g transform="translate(1184.082 13.378)"><g transform="matrix(-0.719, 0.695, -0.695, -0.719, -1051.63, -17.193)"><g transform="translate(89.095 61)"><g class="a" transform="translate(-89.095 -61)"><path class="b" d="M106.07,73.974a3.474,3.474,0,0,1-1.8,3.15c-3.725,2-8.2.264-11.286-2.789-2.993-2.961-5.111-7.667-3.1-11.506A3.312,3.312,0,0,1,93,61h.009c1,0,2.291,2.12,2.647,2.891.513,1.113.533,1.958.061,2.514-.3.352-1.454,1.315-1.454,1.315a.478.478,0,0,0,.066.174c1.465,2.771,4.263,4.842,4.986,4.88,0-.02,1.233-1.385,1.248-1.4a1.375,1.375,0,0,1,1.178-.447c1.539.071,3.828,2.105,4.187,2.577A.7.7,0,0,1,106.07,73.974Z"/><path class="c" d="M 100.8196868896484 77.98091125488281 C 101.9984283447266 77.98091125488281 103.1671371459961 77.71601867675781 104.2697296142578 77.12340545654297 C 105.3986892700195 76.51667022705078 105.9711227416992 75.51548004150391 106.0700531005859 73.9735107421875 C 106.0810470581055 73.80445098876953 106.0301971435547 73.63678741455078 105.927848815918 73.50215148925781 C 105.5691299438477 73.03075408935547 103.2802429199219 70.99674987792969 101.7409896850586 70.92530822753906 C 101.6940307617188 70.92173767089844 101.6485595703125 70.9200439453125 101.6045150756836 70.9200439453125 C 101.0717468261719 70.9200439453125 100.7491455078125 71.16890716552734 100.5625228881836 71.37263488769531 C 100.54736328125 71.38909912109375 99.31867980957031 72.75365447998047 99.31463623046875 72.77373504638672 C 98.59170532226563 72.73569488525391 95.7938232421875 70.66445159912109 94.32863616943359 67.89358520507813 C 94.26475524902344 67.77330017089844 94.26283264160156 67.71991729736328 94.26283264160156 67.71991729736328 C 94.26283264160156 67.71991729736328 95.4188232421875 66.75600433349609 95.71669769287109 66.40447998046875 C 96.18874359130859 65.84925842285156 96.16816711425781 65.00337982177734 95.65553283691406 63.890869140625 C 95.29957580566406 63.11985778808594 94.01251983642578 61.00206756591797 93.00859832763672 61.00000762939453 C 93.00588989257813 61.00000762939453 93.00245666503906 61.00000762939453 92.99969482421875 61.00000762939453 C 91.58963012695313 61.00000762939453 90.51286315917969 61.63220596313477 89.88548278808594 62.82853698730469 C 87.87282562255859 66.66698455810547 89.99131011962891 71.37329864501953 92.98387908935547 74.33423614501953 C 95.15538024902344 76.48334503173828 98.01646423339844 77.98091125488281 100.8196868896484 77.98091125488281 M 100.8196868896484 79.38092041015625 C 97.81575012207031 79.38092041015625 94.60075378417969 77.90415954589844 91.99906921386719 75.32930755615234 C 90.25215911865234 73.60084533691406 88.91178894042969 71.47351837158203 88.22501373291016 69.33930969238281 C 87.39547729492188 66.76140594482422 87.54090881347656 64.28520965576172 88.64559936523438 62.17840957641602 C 89.51756286621094 60.51567840576172 91.06386566162109 59.60000610351563 92.99969482421875 59.60000610351563 L 93.00859832763672 59.60000610351563 C 93.91148376464844 59.60185623168945 94.78307342529297 60.15541839599609 95.67604827880859 61.29231643676758 C 96.21532440185547 61.97891616821289 96.69271850585938 62.79742813110352 96.92660522460938 63.30403900146484 C 97.87479400634766 65.36178588867188 97.37199401855469 66.61890411376953 96.78330993652344 67.31130981445313 C 96.62407684326172 67.49922180175781 96.33795166015625 67.76979827880859 96.04054260253906 68.03619384765625 C 96.98107147216797 69.45759582519531 98.20562744140625 70.53245544433594 98.96253967285156 71.05854034423828 C 99.22784423828125 70.76252746582031 99.51357269287109 70.44499969482422 99.53274536132813 70.42418670654297 C 100.0736770629883 69.83365631103516 100.7909774780273 69.52003479003906 101.6045150756836 69.52003479003906 C 101.6776657104492 69.52003479003906 101.7523345947266 69.52266693115234 101.8267593383789 69.52785491943359 C 102.7606048583984 69.57733154296875 103.8580322265625 70.04673004150391 105.0891342163086 70.92329406738281 C 105.8928680419922 71.49556732177734 106.7141494750977 72.22357940673828 107.0419464111328 72.65433502197266 C 107.3491134643555 73.05841827392578 107.4999542236328 73.55896759033203 107.4671096801758 74.0643310546875 C 107.3379364013672 76.07762145996094 106.4851455688477 77.52214813232422 104.932487487793 78.35659790039063 C 103.6678848266602 79.03627777099609 102.2841262817383 79.38092041015625 100.8196868896484 79.38092041015625 Z"/></g></g></g></g></svg>