<svg xmlns="http://www.w3.org/2000/svg" width="37" height="32.067" viewBox="0 0 37 32.067"><defs><style>.a{fill:#12aba7;}</style></defs><g transform="translate(0 -36.54)"><g transform="translate(0 36.54)"><path class="a" d="M35.555,42.919a4.753,4.753,0,0,0-3.488-1.445H27.751l-.983-2.621a3.579,3.579,0,0,0-1.34-1.629,3.432,3.432,0,0,0-1.995-.684H13.567a3.432,3.432,0,0,0-1.995.684,3.58,3.58,0,0,0-1.339,1.629L9.25,41.474H4.933a4.754,4.754,0,0,0-3.488,1.445A4.753,4.753,0,0,0,0,46.407V63.674a4.752,4.752,0,0,0,1.445,3.488,4.753,4.753,0,0,0,3.488,1.446H32.067A4.935,4.935,0,0,0,37,63.674V46.407A4.753,4.753,0,0,0,35.555,42.919ZM24.6,61.14a8.314,8.314,0,0,1-6.1,2.534,8.315,8.315,0,0,1-6.1-2.534,8.607,8.607,0,0,1,0-12.2,8.314,8.314,0,0,1,6.1-2.534,8.315,8.315,0,0,1,6.1,2.534,8.607,8.607,0,0,1,0,12.2Z" transform="translate(0 -36.54)"/><path class="a" d="M197.406,228.4a5.56,5.56,0,1,0,3.922,1.629A5.345,5.345,0,0,0,197.406,228.4Z" transform="translate(-178.906 -215.453)"/></g></g></svg>