<svg xmlns="http://www.w3.org/2000/svg" width="30.853" height="30.81" viewBox="0 0 30.853 30.81"><defs><style>.a{fill:#12aba7;}</style></defs><g transform="translate(0 -0.358)"><g transform="translate(0 19.176)"><path class="a" d="M28.443,312.642v8.376a1.207,1.207,0,0,1-1.205,1.205H3.616a1.207,1.207,0,0,1-1.205-1.205v-8.376H0v8.376a3.62,3.62,0,0,0,3.616,3.616H27.237a3.62,3.62,0,0,0,3.616-3.616v-8.376Z" transform="translate(0 -312.642)"/></g><g transform="translate(7.937 0.358)"><g transform="translate(0 0)"><path class="a" d="M139.205.358l-7.489,7.489,1.7,1.7L138,4.972V23.756h2.41V4.972l4.58,4.58,1.7-1.7Z" transform="translate(-131.716 -0.358)"/></g></g></g></svg>